<?xml version="1.0" encoding="UTF-8"?>
<svg xmlns="http://www.w3.org/2000/svg" xmlns:xlink="http://www.w3.org/1999/xlink" width="2000" height="1000" viewBox="0 0 2000 1000">
<defs>
<clipPath id="clip-0">
<path clip-rule="nonzero" d="M 415 288 L 699 288 L 699 683 L 415 683 Z M 415 288 "/>
</clipPath>
<clipPath id="clip-1">
<path clip-rule="nonzero" d="M 639.023438 392.410156 L 594.410156 347.796875 L 594.410156 682.398438 L 639.023438 637.785156 Z M 698.511719 332.925781 L 653.898438 288.3125 L 653.898438 622.914062 L 698.511719 578.300781 Z M 579.539062 332.925781 L 534.929688 288.3125 L 534.929688 622.914062 L 579.539062 578.300781 Z M 520.058594 392.410156 L 475.441406 347.796875 L 475.441406 682.398438 L 520.058594 637.785156 Z M 460.570312 578.300781 L 415.957031 622.914062 L 415.957031 288.3125 L 460.570312 332.925781 Z M 460.570312 578.300781 "/>
</clipPath>
<linearGradient id="linear-pattern-0" gradientUnits="userSpaceOnUse" x1="0.000000682707" y1="0" x2="1.000001" y2="0" gradientTransform="matrix(-282.551788, 0, 0, -282.551788, 698.510193, 485.356506)">
<stop offset="0" stop-color="rgb(87.059021%, 71.765137%, 41.960144%)" stop-opacity="1"/>
<stop offset="0.00390625" stop-color="rgb(86.274719%, 52.549744%, 27.450562%)" stop-opacity="1"/>
<stop offset="0.0078125" stop-color="rgb(85.098267%, 29.803467%, 15.686035%)" stop-opacity="1"/>
<stop offset="0.015625" stop-color="rgb(85.098267%, 29.803467%, 15.686035%)" stop-opacity="1"/>
<stop offset="0.03125" stop-color="rgb(85.098267%, 29.803467%, 15.686035%)" stop-opacity="1"/>
<stop offset="0.046875" stop-color="rgb(84.706116%, 29.803467%, 16.078186%)" stop-opacity="1"/>
<stop offset="0.0625" stop-color="rgb(84.706116%, 29.803467%, 16.078186%)" stop-opacity="1"/>
<stop offset="0.078125" stop-color="rgb(84.313965%, 29.803467%, 16.078186%)" stop-opacity="1"/>
<stop offset="0.0859375" stop-color="rgb(84.313965%, 29.803467%, 16.470337%)" stop-opacity="1"/>
<stop offset="0.09375" stop-color="rgb(84.313965%, 29.803467%, 16.470337%)" stop-opacity="1"/>
<stop offset="0.101562" stop-color="rgb(83.921814%, 29.803467%, 16.470337%)" stop-opacity="1"/>
<stop offset="0.109375" stop-color="rgb(83.529663%, 29.803467%, 16.862488%)" stop-opacity="1"/>
<stop offset="0.117188" stop-color="rgb(83.529663%, 29.411316%, 16.862488%)" stop-opacity="1"/>
<stop offset="0.125" stop-color="rgb(83.137512%, 29.411316%, 16.862488%)" stop-opacity="1"/>
<stop offset="0.132812" stop-color="rgb(83.137512%, 29.411316%, 16.862488%)" stop-opacity="1"/>
<stop offset="0.140625" stop-color="rgb(82.35321%, 29.411316%, 17.254639%)" stop-opacity="1"/>
<stop offset="0.148437" stop-color="rgb(82.35321%, 29.411316%, 17.254639%)" stop-opacity="1"/>
<stop offset="0.152344" stop-color="rgb(81.96106%, 29.411316%, 17.64679%)" stop-opacity="1"/>
<stop offset="0.15625" stop-color="rgb(81.96106%, 29.411316%, 17.64679%)" stop-opacity="1"/>
<stop offset="0.160156" stop-color="rgb(81.96106%, 29.411316%, 17.64679%)" stop-opacity="1"/>
<stop offset="0.164063" stop-color="rgb(81.176758%, 29.411316%, 17.64679%)" stop-opacity="1"/>
<stop offset="0.167969" stop-color="rgb(81.176758%, 29.411316%, 17.64679%)" stop-opacity="1"/>
<stop offset="0.171875" stop-color="rgb(81.176758%, 29.411316%, 18.03894%)" stop-opacity="1"/>
<stop offset="0.175781" stop-color="rgb(81.176758%, 29.411316%, 18.03894%)" stop-opacity="1"/>
<stop offset="0.179688" stop-color="rgb(80.784607%, 29.411316%, 18.03894%)" stop-opacity="1"/>
<stop offset="0.183594" stop-color="rgb(80.392456%, 29.411316%, 18.431091%)" stop-opacity="1"/>
<stop offset="0.1875" stop-color="rgb(80.392456%, 29.411316%, 18.431091%)" stop-opacity="1"/>
<stop offset="0.191406" stop-color="rgb(80.000305%, 29.411316%, 18.431091%)" stop-opacity="1"/>
<stop offset="0.195312" stop-color="rgb(80.000305%, 29.411316%, 18.823242%)" stop-opacity="1"/>
<stop offset="0.199219" stop-color="rgb(80.000305%, 29.411316%, 18.823242%)" stop-opacity="1"/>
<stop offset="0.203125" stop-color="rgb(79.608154%, 29.411316%, 18.823242%)" stop-opacity="1"/>
<stop offset="0.207031" stop-color="rgb(79.216003%, 29.411316%, 18.823242%)" stop-opacity="1"/>
<stop offset="0.210937" stop-color="rgb(79.216003%, 29.411316%, 19.215393%)" stop-opacity="1"/>
<stop offset="0.214844" stop-color="rgb(78.823853%, 29.411316%, 19.215393%)" stop-opacity="1"/>
<stop offset="0.21875" stop-color="rgb(78.431702%, 29.019165%, 19.215393%)" stop-opacity="1"/>
<stop offset="0.222656" stop-color="rgb(78.039551%, 29.019165%, 19.215393%)" stop-opacity="1"/>
<stop offset="0.226563" stop-color="rgb(78.431702%, 29.019165%, 19.607544%)" stop-opacity="1"/>
<stop offset="0.230469" stop-color="rgb(78.039551%, 29.019165%, 19.607544%)" stop-opacity="1"/>
<stop offset="0.234375" stop-color="rgb(77.6474%, 29.019165%, 19.607544%)" stop-opacity="1"/>
<stop offset="0.238281" stop-color="rgb(77.255249%, 29.019165%, 19.999695%)" stop-opacity="1"/>
<stop offset="0.242188" stop-color="rgb(76.863098%, 29.019165%, 19.999695%)" stop-opacity="1"/>
<stop offset="0.246094" stop-color="rgb(76.863098%, 29.019165%, 19.999695%)" stop-opacity="1"/>
<stop offset="0.25" stop-color="rgb(76.470947%, 29.019165%, 20.391846%)" stop-opacity="1"/>
<stop offset="0.253906" stop-color="rgb(76.470947%, 29.019165%, 20.391846%)" stop-opacity="1"/>
<stop offset="0.257812" stop-color="rgb(76.078796%, 29.019165%, 20.391846%)" stop-opacity="1"/>
<stop offset="0.261719" stop-color="rgb(75.686646%, 29.019165%, 20.391846%)" stop-opacity="1"/>
<stop offset="0.265625" stop-color="rgb(75.294495%, 29.019165%, 20.783997%)" stop-opacity="1"/>
<stop offset="0.269531" stop-color="rgb(75.294495%, 29.019165%, 20.783997%)" stop-opacity="1"/>
<stop offset="0.273438" stop-color="rgb(74.902344%, 28.627014%, 20.783997%)" stop-opacity="1"/>
<stop offset="0.277344" stop-color="rgb(74.510193%, 28.627014%, 20.783997%)" stop-opacity="1"/>
<stop offset="0.28125" stop-color="rgb(74.118042%, 28.627014%, 21.176147%)" stop-opacity="1"/>
<stop offset="0.285156" stop-color="rgb(74.118042%, 28.627014%, 21.176147%)" stop-opacity="1"/>
<stop offset="0.289062" stop-color="rgb(73.725891%, 28.627014%, 21.176147%)" stop-opacity="1"/>
<stop offset="0.292969" stop-color="rgb(73.33374%, 28.627014%, 21.568298%)" stop-opacity="1"/>
<stop offset="0.296875" stop-color="rgb(72.941589%, 28.627014%, 21.960449%)" stop-opacity="1"/>
<stop offset="0.300781" stop-color="rgb(72.549438%, 28.627014%, 21.568298%)" stop-opacity="1"/>
<stop offset="0.304688" stop-color="rgb(72.549438%, 28.627014%, 21.960449%)" stop-opacity="1"/>
<stop offset="0.308594" stop-color="rgb(72.157288%, 28.627014%, 21.960449%)" stop-opacity="1"/>
<stop offset="0.3125" stop-color="rgb(71.765137%, 28.627014%, 22.3526%)" stop-opacity="1"/>
<stop offset="0.316406" stop-color="rgb(71.372986%, 28.627014%, 22.3526%)" stop-opacity="1"/>
<stop offset="0.320312" stop-color="rgb(70.980835%, 28.627014%, 22.744751%)" stop-opacity="1"/>
<stop offset="0.324219" stop-color="rgb(70.588684%, 28.234863%, 22.744751%)" stop-opacity="1"/>
<stop offset="0.328125" stop-color="rgb(70.196533%, 28.234863%, 23.136902%)" stop-opacity="1"/>
<stop offset="0.332031" stop-color="rgb(70.196533%, 28.234863%, 23.136902%)" stop-opacity="1"/>
<stop offset="0.335938" stop-color="rgb(69.412231%, 28.234863%, 23.136902%)" stop-opacity="1"/>
<stop offset="0.339844" stop-color="rgb(69.412231%, 28.234863%, 23.529053%)" stop-opacity="1"/>
<stop offset="0.34375" stop-color="rgb(68.62793%, 28.234863%, 23.529053%)" stop-opacity="1"/>
<stop offset="0.347656" stop-color="rgb(68.235779%, 28.234863%, 23.921204%)" stop-opacity="1"/>
<stop offset="0.351562" stop-color="rgb(68.235779%, 28.234863%, 23.921204%)" stop-opacity="1"/>
<stop offset="0.355469" stop-color="rgb(67.843628%, 27.842712%, 23.921204%)" stop-opacity="1"/>
<stop offset="0.359375" stop-color="rgb(67.059326%, 27.842712%, 24.313354%)" stop-opacity="1"/>
<stop offset="0.363281" stop-color="rgb(66.667175%, 27.842712%, 24.313354%)" stop-opacity="1"/>
<stop offset="0.367188" stop-color="rgb(66.275024%, 27.842712%, 24.313354%)" stop-opacity="1"/>
<stop offset="0.371094" stop-color="rgb(65.882874%, 27.842712%, 24.705505%)" stop-opacity="1"/>
<stop offset="0.375" stop-color="rgb(65.490723%, 27.842712%, 24.705505%)" stop-opacity="1"/>
<stop offset="0.378906" stop-color="rgb(65.098572%, 27.842712%, 25.097656%)" stop-opacity="1"/>
<stop offset="0.382812" stop-color="rgb(64.706421%, 27.842712%, 25.097656%)" stop-opacity="1"/>
<stop offset="0.386719" stop-color="rgb(64.31427%, 27.842712%, 25.097656%)" stop-opacity="1"/>
<stop offset="0.390625" stop-color="rgb(63.922119%, 27.450562%, 25.097656%)" stop-opacity="1"/>
<stop offset="0.394531" stop-color="rgb(63.529968%, 27.450562%, 25.489807%)" stop-opacity="1"/>
<stop offset="0.398438" stop-color="rgb(63.137817%, 27.450562%, 25.489807%)" stop-opacity="1"/>
<stop offset="0.402344" stop-color="rgb(62.353516%, 27.058411%, 25.881958%)" stop-opacity="1"/>
<stop offset="0.40625" stop-color="rgb(61.961365%, 27.058411%, 25.881958%)" stop-opacity="1"/>
<stop offset="0.410156" stop-color="rgb(61.569214%, 27.058411%, 26.274109%)" stop-opacity="1"/>
<stop offset="0.414062" stop-color="rgb(61.177063%, 27.058411%, 26.274109%)" stop-opacity="1"/>
<stop offset="0.417969" stop-color="rgb(60.784912%, 27.058411%, 26.274109%)" stop-opacity="1"/>
<stop offset="0.421875" stop-color="rgb(60.392761%, 27.058411%, 26.66626%)" stop-opacity="1"/>
<stop offset="0.425781" stop-color="rgb(59.608459%, 26.66626%, 26.66626%)" stop-opacity="1"/>
<stop offset="0.429688" stop-color="rgb(59.216309%, 26.66626%, 26.66626%)" stop-opacity="1"/>
<stop offset="0.433594" stop-color="rgb(58.824158%, 26.66626%, 27.058411%)" stop-opacity="1"/>
<stop offset="0.4375" stop-color="rgb(58.432007%, 26.66626%, 27.058411%)" stop-opacity="1"/>
<stop offset="0.441406" stop-color="rgb(57.647705%, 26.66626%, 27.450562%)" stop-opacity="1"/>
<stop offset="0.445312" stop-color="rgb(57.647705%, 26.66626%, 27.450562%)" stop-opacity="1"/>
<stop offset="0.449219" stop-color="rgb(56.863403%, 26.66626%, 27.450562%)" stop-opacity="1"/>
<stop offset="0.453125" stop-color="rgb(56.471252%, 26.274109%, 27.842712%)" stop-opacity="1"/>
<stop offset="0.457031" stop-color="rgb(56.079102%, 26.274109%, 27.842712%)" stop-opacity="1"/>
<stop offset="0.460938" stop-color="rgb(55.2948%, 26.274109%, 28.234863%)" stop-opacity="1"/>
<stop offset="0.464844" stop-color="rgb(54.902649%, 26.274109%, 28.234863%)" stop-opacity="1"/>
<stop offset="0.46875" stop-color="rgb(54.510498%, 26.274109%, 28.627014%)" stop-opacity="1"/>
<stop offset="0.472656" stop-color="rgb(53.726196%, 26.274109%, 28.627014%)" stop-opacity="1"/>
<stop offset="0.476562" stop-color="rgb(53.334045%, 26.274109%, 28.627014%)" stop-opacity="1"/>
<stop offset="0.480469" stop-color="rgb(52.941895%, 25.881958%, 29.019165%)" stop-opacity="1"/>
<stop offset="0.484375" stop-color="rgb(52.157593%, 25.881958%, 29.019165%)" stop-opacity="1"/>
<stop offset="0.488281" stop-color="rgb(51.765442%, 25.881958%, 29.019165%)" stop-opacity="1"/>
<stop offset="0.492188" stop-color="rgb(50.98114%, 25.881958%, 29.019165%)" stop-opacity="1"/>
<stop offset="0.496094" stop-color="rgb(50.98114%, 25.881958%, 29.411316%)" stop-opacity="1"/>
<stop offset="0.5" stop-color="rgb(50.196838%, 25.881958%, 29.411316%)" stop-opacity="1"/>
<stop offset="0.503906" stop-color="rgb(49.803162%, 25.489807%, 29.803467%)" stop-opacity="1"/>
<stop offset="0.507812" stop-color="rgb(49.01886%, 25.489807%, 29.803467%)" stop-opacity="1"/>
<stop offset="0.511719" stop-color="rgb(48.234558%, 25.489807%, 30.195618%)" stop-opacity="1"/>
<stop offset="0.515625" stop-color="rgb(47.842407%, 25.489807%, 30.195618%)" stop-opacity="1"/>
<stop offset="0.519531" stop-color="rgb(47.058105%, 25.489807%, 30.587769%)" stop-opacity="1"/>
<stop offset="0.523437" stop-color="rgb(46.665955%, 25.489807%, 30.587769%)" stop-opacity="1"/>
<stop offset="0.527344" stop-color="rgb(45.881653%, 25.097656%, 30.587769%)" stop-opacity="1"/>
<stop offset="0.53125" stop-color="rgb(45.489502%, 25.097656%, 30.979919%)" stop-opacity="1"/>
<stop offset="0.535156" stop-color="rgb(44.7052%, 25.097656%, 30.979919%)" stop-opacity="1"/>
<stop offset="0.539062" stop-color="rgb(43.920898%, 25.097656%, 31.37207%)" stop-opacity="1"/>
<stop offset="0.542969" stop-color="rgb(43.528748%, 25.097656%, 31.37207%)" stop-opacity="1"/>
<stop offset="0.546875" stop-color="rgb(42.744446%, 24.705505%, 31.37207%)" stop-opacity="1"/>
<stop offset="0.550781" stop-color="rgb(41.960144%, 24.705505%, 31.37207%)" stop-opacity="1"/>
<stop offset="0.554687" stop-color="rgb(41.567993%, 24.705505%, 31.764221%)" stop-opacity="1"/>
<stop offset="0.558594" stop-color="rgb(40.783691%, 24.705505%, 31.764221%)" stop-opacity="1"/>
<stop offset="0.5625" stop-color="rgb(40.391541%, 24.705505%, 32.156372%)" stop-opacity="1"/>
<stop offset="0.566406" stop-color="rgb(39.607239%, 24.313354%, 32.156372%)" stop-opacity="1"/>
<stop offset="0.570312" stop-color="rgb(38.822937%, 24.313354%, 32.156372%)" stop-opacity="1"/>
<stop offset="0.574219" stop-color="rgb(38.430786%, 24.313354%, 32.548523%)" stop-opacity="1"/>
<stop offset="0.578125" stop-color="rgb(37.646484%, 24.313354%, 32.548523%)" stop-opacity="1"/>
<stop offset="0.582031" stop-color="rgb(36.862183%, 23.921204%, 32.548523%)" stop-opacity="1"/>
<stop offset="0.585937" stop-color="rgb(36.470032%, 23.921204%, 32.940674%)" stop-opacity="1"/>
<stop offset="0.589844" stop-color="rgb(35.68573%, 23.921204%, 32.940674%)" stop-opacity="1"/>
<stop offset="0.59375" stop-color="rgb(34.901428%, 23.529053%, 32.940674%)" stop-opacity="1"/>
<stop offset="0.597656" stop-color="rgb(34.509277%, 23.529053%, 33.332825%)" stop-opacity="1"/>
<stop offset="0.601562" stop-color="rgb(33.724976%, 23.529053%, 33.332825%)" stop-opacity="1"/>
<stop offset="0.605469" stop-color="rgb(32.940674%, 23.529053%, 33.332825%)" stop-opacity="1"/>
<stop offset="0.609375" stop-color="rgb(32.156372%, 23.136902%, 33.332825%)" stop-opacity="1"/>
<stop offset="0.613281" stop-color="rgb(31.37207%, 23.136902%, 33.724976%)" stop-opacity="1"/>
<stop offset="0.617188" stop-color="rgb(30.979919%, 23.136902%, 33.724976%)" stop-opacity="1"/>
<stop offset="0.621094" stop-color="rgb(30.195618%, 22.744751%, 33.724976%)" stop-opacity="1"/>
<stop offset="0.625" stop-color="rgb(29.411316%, 22.744751%, 33.724976%)" stop-opacity="1"/>
<stop offset="0.628906" stop-color="rgb(28.627014%, 22.744751%, 33.724976%)" stop-opacity="1"/>
<stop offset="0.632812" stop-color="rgb(27.842712%, 22.744751%, 34.117126%)" stop-opacity="1"/>
<stop offset="0.636719" stop-color="rgb(27.058411%, 22.3526%, 34.117126%)" stop-opacity="1"/>
<stop offset="0.640625" stop-color="rgb(26.274109%, 22.3526%, 34.117126%)" stop-opacity="1"/>
<stop offset="0.644531" stop-color="rgb(25.881958%, 22.3526%, 34.117126%)" stop-opacity="1"/>
<stop offset="0.648438" stop-color="rgb(25.097656%, 21.960449%, 34.117126%)" stop-opacity="1"/>
<stop offset="0.652344" stop-color="rgb(23.921204%, 21.960449%, 34.509277%)" stop-opacity="1"/>
<stop offset="0.65625" stop-color="rgb(23.529053%, 21.960449%, 34.509277%)" stop-opacity="1"/>
<stop offset="0.660156" stop-color="rgb(22.3526%, 21.568298%, 34.509277%)" stop-opacity="1"/>
<stop offset="0.664063" stop-color="rgb(21.568298%, 21.568298%, 34.509277%)" stop-opacity="1"/>
<stop offset="0.667969" stop-color="rgb(21.176147%, 21.568298%, 34.901428%)" stop-opacity="1"/>
<stop offset="0.671875" stop-color="rgb(19.999695%, 21.568298%, 34.901428%)" stop-opacity="1"/>
<stop offset="0.675781" stop-color="rgb(19.215393%, 21.176147%, 35.293579%)" stop-opacity="1"/>
<stop offset="0.679688" stop-color="rgb(18.431091%, 21.176147%, 35.293579%)" stop-opacity="1"/>
<stop offset="0.683594" stop-color="rgb(17.64679%, 21.176147%, 35.293579%)" stop-opacity="1"/>
<stop offset="0.6875" stop-color="rgb(16.470337%, 21.176147%, 35.293579%)" stop-opacity="1"/>
<stop offset="0.691406" stop-color="rgb(15.686035%, 20.783997%, 35.293579%)" stop-opacity="1"/>
<stop offset="0.695313" stop-color="rgb(14.509583%, 20.783997%, 35.293579%)" stop-opacity="1"/>
<stop offset="0.699219" stop-color="rgb(13.33313%, 20.783997%, 35.68573%)" stop-opacity="1"/>
<stop offset="0.703125" stop-color="rgb(12.156677%, 20.391846%, 35.293579%)" stop-opacity="1"/>
<stop offset="0.71875" stop-color="rgb(12.156677%, 20.391846%, 35.293579%)" stop-opacity="1"/>
<stop offset="0.75" stop-color="rgb(12.156677%, 20.391846%, 35.293579%)" stop-opacity="1"/>
<stop offset="1" stop-color="rgb(12.156677%, 20.391846%, 35.293579%)" stop-opacity="1"/>
</linearGradient>
</defs>
<g clip-path="url(#clip-0)">
<g clip-path="url(#clip-1)">
<path fill-rule="nonzero" fill="url(#linear-pattern-0)" d="M 698.511719 682.398438 L 698.511719 288.3125 L 415.957031 288.3125 L 415.957031 682.398438 Z M 698.511719 682.398438 "/>
</g>
</g>
<path fill-rule="nonzero" fill="rgb(0.392151%, 0.392151%, 0.392151%)" fill-opacity="1" d="M 782.550781 509.421875 L 782.550781 315.988281 L 815.164062 315.988281 L 881.234375 470.0625 L 882.640625 470.0625 L 948.429688 315.988281 L 981.042969 315.988281 L 981.042969 509.421875 L 957.425781 509.421875 L 957.425781 354.789062 L 956.304688 354.789062 L 890.230469 509.421875 L 872.519531 509.421875 L 806.449219 354.789062 L 805.324219 354.789062 L 805.324219 509.421875 Z M 782.550781 509.421875 "/>
<path fill-rule="nonzero" fill="rgb(0.392151%, 0.392151%, 0.392151%)" fill-opacity="1" d="M 1068.761719 435.480469 L 1141.019531 435.480469 L 1105.59375 340.730469 L 1104.1875 340.730469 Z M 1017.03125 509.421875 L 1090.128906 315.988281 L 1120.492188 315.988281 L 1193.3125 509.421875 L 1168.289062 509.421875 L 1148.328125 456.566406 L 1061.453125 456.566406 L 1041.492188 509.421875 Z M 1017.03125 509.421875 "/>
<path fill-rule="nonzero" fill="rgb(0.392151%, 0.392151%, 0.392151%)" fill-opacity="1" d="M 1289.746094 511.671875 C 1282.808594 511.671875 1275.21875 511.484375 1266.972656 511.109375 C 1258.722656 510.734375 1250.710938 510.265625 1242.933594 509.703125 C 1235.152344 509.140625 1228.074219 508.488281 1221.707031 507.734375 L 1221.707031 487.210938 C 1228.453125 487.773438 1235.527344 488.335938 1242.933594 488.898438 C 1250.335938 489.460938 1257.554688 489.929688 1264.582031 490.304688 C 1271.609375 490.683594 1277.558594 490.867188 1282.433594 490.867188 C 1292.367188 490.867188 1300.332031 490.445312 1306.335938 489.601562 C 1312.332031 488.757812 1317.390625 487.117188 1321.515625 484.679688 C 1324.328125 482.992188 1326.386719 480.746094 1327.699219 477.933594 C 1329.011719 475.121094 1329.808594 471.84375 1330.089844 468.09375 C 1330.371094 464.34375 1330.511719 460.316406 1330.511719 456.003906 C 1330.511719 449.632812 1330.324219 444.476562 1329.949219 440.539062 C 1329.570312 436.605469 1328.589844 433.558594 1327 431.402344 C 1325.402344 429.25 1322.824219 427.65625 1319.265625 426.621094 C 1315.703125 425.59375 1310.925781 424.796875 1304.929688 424.234375 L 1256.851562 418.890625 C 1247.851562 417.765625 1240.636719 415.847656 1235.203125 413.128906 C 1229.765625 410.414062 1225.6875 406.941406 1222.972656 402.726562 C 1220.253906 398.507812 1218.425781 393.445312 1217.488281 387.542969 C 1216.550781 381.636719 1216.082031 375.03125 1216.082031 367.722656 C 1216.082031 355.914062 1217.628906 346.449219 1220.722656 339.324219 C 1223.816406 332.203125 1228.355469 326.769531 1234.359375 323.019531 C 1240.355469 319.269531 1247.617188 316.789062 1256.148438 315.566406 C 1264.675781 314.351562 1274.46875 313.738281 1285.527344 313.738281 C 1292.648438 313.738281 1299.960938 313.929688 1307.457031 314.300781 C 1314.953125 314.679688 1322.03125 315.195312 1328.683594 315.847656 C 1335.335938 316.507812 1340.820312 317.300781 1345.132812 318.238281 L 1345.132812 338.199219 C 1340.257812 337.453125 1334.632812 336.792969 1328.265625 336.230469 C 1321.890625 335.667969 1315.375 335.246094 1308.722656 334.964844 C 1302.066406 334.683594 1295.742188 334.542969 1289.746094 334.542969 C 1279.433594 334.542969 1271.09375 335.015625 1264.722656 335.949219 C 1258.347656 336.890625 1253.289062 338.578125 1249.542969 341.011719 C 1245.417969 343.449219 1242.835938 346.871094 1241.808594 351.273438 C 1240.777344 355.679688 1240.261719 360.972656 1240.261719 367.160156 C 1240.261719 374.46875 1240.777344 380.140625 1241.808594 384.167969 C 1242.835938 388.203125 1245.085938 391.011719 1248.558594 392.601562 C 1252.023438 394.199219 1257.222656 395.371094 1264.160156 396.117188 L 1311.113281 401.460938 C 1317.859375 402.023438 1323.808594 402.914062 1328.96875 404.128906 C 1334.117188 405.351562 1338.570312 407.363281 1342.320312 410.175781 C 1346.066406 412.988281 1348.878906 417.019531 1350.757812 422.265625 C 1351.882812 424.890625 1352.722656 427.796875 1353.285156 430.980469 C 1353.847656 434.167969 1354.269531 437.683594 1354.550781 441.523438 C 1354.832031 445.367188 1354.972656 449.632812 1354.972656 454.316406 C 1354.972656 465 1353.941406 473.855469 1351.882812 480.886719 C 1349.816406 487.914062 1346.910156 493.492188 1343.164062 497.613281 C 1339.414062 501.738281 1334.820312 504.832031 1329.390625 506.894531 C 1323.949219 508.957031 1317.90625 510.265625 1311.253906 510.828125 C 1304.597656 511.390625 1297.429688 511.671875 1289.746094 511.671875 "/>
<path fill-rule="nonzero" fill="rgb(0.392151%, 0.392151%, 0.392151%)" fill-opacity="1" d="M 1443.253906 509.421875 L 1443.253906 337.355469 L 1382.242188 337.355469 L 1382.242188 315.988281 L 1528.722656 315.988281 L 1528.722656 337.355469 L 1467.433594 337.355469 L 1467.433594 509.421875 Z M 1443.253906 509.421875 "/>
<path fill-rule="nonzero" fill="rgb(0.392151%, 0.392151%, 0.392151%)" fill-opacity="1" d="M 826.09375 596.695312 L 826.09375 563.425781 L 831.703125 563.425781 L 843.066406 589.925781 L 843.308594 589.925781 L 854.625 563.425781 L 860.234375 563.425781 L 860.234375 596.695312 L 856.171875 596.695312 L 856.171875 570.097656 L 855.976562 570.097656 L 844.613281 596.695312 L 841.566406 596.695312 L 830.203125 570.097656 L 830.011719 570.097656 L 830.011719 596.695312 Z M 826.09375 596.695312 "/>
<path fill-rule="nonzero" fill="rgb(0.392151%, 0.392151%, 0.392151%)" fill-opacity="1" d="M 877.980469 583.976562 L 890.410156 583.976562 L 884.316406 567.679688 L 884.074219 567.679688 Z M 869.082031 596.695312 L 881.65625 563.425781 L 886.878906 563.425781 L 899.402344 596.695312 L 895.097656 596.695312 L 891.664062 587.605469 L 876.722656 587.605469 L 873.289062 596.695312 Z M 869.082031 596.695312 "/>
<path fill-rule="nonzero" fill="rgb(0.392151%, 0.392151%, 0.392151%)" fill-opacity="1" d="M 920.535156 597.082031 C 918.214844 597.082031 916.261719 596.945312 914.683594 596.671875 C 913.101562 596.398438 911.8125 595.914062 910.8125 595.222656 C 909.8125 594.527344 909.050781 593.546875 908.515625 592.269531 C 907.984375 590.996094 907.621094 589.363281 907.429688 587.363281 C 907.234375 585.363281 907.140625 582.929688 907.140625 580.0625 C 907.140625 577.191406 907.234375 574.765625 907.429688 572.78125 C 907.621094 570.800781 907.984375 569.175781 908.515625 567.898438 C 909.050781 566.625 909.8125 565.636719 910.8125 564.925781 C 911.8125 564.21875 913.101562 563.726562 914.683594 563.449219 C 916.261719 563.175781 918.214844 563.039062 920.535156 563.039062 C 921.4375 563.039062 922.363281 563.070312 923.3125 563.136719 C 924.265625 563.199219 925.175781 563.28125 926.046875 563.378906 C 926.917969 563.476562 927.675781 563.605469 928.320312 563.765625 L 928.320312 567.101562 C 927.578125 567.003906 926.8125 566.914062 926.023438 566.835938 C 925.230469 566.757812 924.453125 566.699219 923.675781 566.664062 C 922.902344 566.636719 922.210938 566.617188 921.597656 566.617188 C 919.726562 566.617188 918.164062 566.699219 916.90625 566.859375 C 915.648438 567.019531 914.648438 567.335938 913.910156 567.804688 C 913.167969 568.269531 912.609375 568.996094 912.242188 569.980469 C 911.871094 570.964844 911.621094 572.269531 911.492188 573.894531 C 911.363281 575.523438 911.296875 577.578125 911.296875 580.0625 C 911.296875 582.542969 911.363281 584.601562 911.492188 586.226562 C 911.621094 587.855469 911.871094 589.160156 912.242188 590.144531 C 912.609375 591.128906 913.167969 591.851562 913.910156 592.320312 C 914.648438 592.789062 915.648438 593.101562 916.90625 593.261719 C 918.164062 593.425781 919.726562 593.503906 921.597656 593.503906 C 922.691406 593.503906 923.886719 593.457031 925.175781 593.359375 C 926.464844 593.261719 927.578125 593.148438 928.511719 593.019531 L 928.511719 596.453125 C 927.835938 596.585938 927.039062 596.6875 926.121094 596.769531 C 925.203125 596.847656 924.257812 596.921875 923.289062 596.984375 C 922.324219 597.050781 921.402344 597.082031 920.535156 597.082031 "/>
<path fill-rule="nonzero" fill="rgb(0.392151%, 0.392151%, 0.392151%)" fill-opacity="1" d="M 951 597.082031 C 948.679688 597.082031 946.726562 596.945312 945.148438 596.671875 C 943.570312 596.398438 942.277344 595.914062 941.28125 595.222656 C 940.28125 594.527344 939.515625 593.546875 938.984375 592.269531 C 938.449219 590.996094 938.085938 589.363281 937.894531 587.363281 C 937.703125 585.363281 937.605469 582.929688 937.605469 580.0625 C 937.605469 577.191406 937.703125 574.765625 937.894531 572.78125 C 938.085938 570.800781 938.449219 569.175781 938.984375 567.898438 C 939.515625 566.625 940.28125 565.636719 941.28125 564.925781 C 942.277344 564.21875 943.570312 563.726562 945.148438 563.449219 C 946.726562 563.175781 948.679688 563.039062 951 563.039062 C 951.902344 563.039062 952.828125 563.070312 953.78125 563.136719 C 954.730469 563.199219 955.640625 563.28125 956.511719 563.378906 C 957.382812 563.476562 958.140625 563.605469 958.785156 563.765625 L 958.785156 567.101562 C 958.042969 567.003906 957.277344 566.914062 956.488281 566.835938 C 955.699219 566.757812 954.917969 566.699219 954.140625 566.664062 C 953.367188 566.636719 952.675781 566.617188 952.0625 566.617188 C 950.195312 566.617188 948.628906 566.699219 947.371094 566.859375 C 946.117188 567.019531 945.117188 567.335938 944.375 567.804688 C 943.632812 568.269531 943.078125 568.996094 942.707031 569.980469 C 942.335938 570.964844 942.085938 572.269531 941.957031 573.894531 C 941.828125 575.523438 941.761719 577.578125 941.761719 580.0625 C 941.761719 582.542969 941.828125 584.601562 941.957031 586.226562 C 942.085938 587.855469 942.335938 589.160156 942.707031 590.144531 C 943.078125 591.128906 943.632812 591.851562 944.375 592.320312 C 945.117188 592.789062 946.117188 593.101562 947.371094 593.261719 C 948.628906 593.425781 950.195312 593.503906 952.0625 593.503906 C 953.160156 593.503906 954.351562 593.457031 955.640625 593.359375 C 956.929688 593.261719 958.042969 593.148438 958.976562 593.019531 L 958.976562 596.453125 C 958.300781 596.585938 957.503906 596.6875 956.585938 596.769531 C 955.667969 596.847656 954.722656 596.921875 953.753906 596.984375 C 952.789062 597.050781 951.871094 597.082031 951 597.082031 "/>
<path fill-rule="nonzero" fill="rgb(0.392151%, 0.392151%, 0.392151%)" fill-opacity="1" d="M 969.230469 596.695312 L 969.230469 563.425781 L 973.390625 563.425781 L 973.390625 578.078125 L 990.796875 578.078125 L 990.796875 563.425781 L 994.957031 563.425781 L 994.957031 596.695312 L 990.796875 596.695312 L 990.796875 581.753906 L 973.390625 581.753906 L 973.390625 596.695312 Z M 969.230469 596.695312 "/>
<path fill-rule="nonzero" fill="rgb(0.392151%, 0.392151%, 0.392151%)" fill-opacity="1" d="M 1007.238281 563.425781 L 1011.394531 563.425781 L 1011.394531 596.695312 L 1007.238281 596.695312 Z M 1007.238281 563.425781 "/>
<path fill-rule="nonzero" fill="rgb(0.392151%, 0.392151%, 0.392151%)" fill-opacity="1" d="M 1023.726562 596.695312 L 1023.726562 563.425781 L 1027.984375 563.425781 L 1045.246094 588.910156 L 1045.441406 588.910156 L 1045.441406 563.425781 L 1049.453125 563.425781 L 1049.453125 596.695312 L 1045.441406 596.695312 L 1027.933594 570.726562 L 1027.742188 570.726562 L 1027.742188 596.695312 Z M 1023.726562 596.695312 "/>
<path fill-rule="nonzero" fill="rgb(0.392151%, 0.392151%, 0.392151%)" fill-opacity="1" d="M 1067.152344 583.976562 L 1079.582031 583.976562 L 1073.488281 567.679688 L 1073.246094 567.679688 Z M 1058.253906 596.695312 L 1070.828125 563.425781 L 1076.050781 563.425781 L 1088.574219 596.695312 L 1084.269531 596.695312 L 1080.835938 587.605469 L 1065.894531 587.605469 L 1062.460938 596.695312 Z M 1058.253906 596.695312 "/>
<path fill-rule="nonzero" fill="rgb(0.392151%, 0.392151%, 0.392151%)" fill-opacity="1" d="M 1101.628906 579.867188 L 1110.964844 579.867188 C 1112.574219 579.867188 1113.839844 579.738281 1114.757812 579.480469 C 1115.679688 579.222656 1116.355469 578.820312 1116.789062 578.273438 C 1117.226562 577.722656 1117.507812 577.054688 1117.636719 576.265625 C 1117.765625 575.476562 1117.828125 574.53125 1117.828125 573.4375 C 1117.828125 572.339844 1117.773438 571.398438 1117.660156 570.605469 C 1117.546875 569.816406 1117.289062 569.15625 1116.886719 568.625 C 1116.484375 568.09375 1115.839844 567.691406 1114.953125 567.417969 C 1114.066406 567.140625 1112.851562 567.003906 1111.300781 567.003906 L 1101.628906 567.003906 Z M 1097.472656 596.695312 L 1097.472656 563.425781 L 1112.75 563.425781 C 1114.847656 563.425781 1116.515625 563.675781 1117.757812 564.175781 C 1118.996094 564.675781 1119.917969 565.386719 1120.515625 566.304688 C 1121.109375 567.222656 1121.503906 568.296875 1121.699219 569.519531 C 1121.890625 570.746094 1121.988281 572.050781 1121.988281 573.4375 C 1121.988281 574.628906 1121.882812 575.863281 1121.675781 577.136719 C 1121.464844 578.410156 1120.996094 579.5625 1120.273438 580.59375 C 1119.546875 581.625 1118.410156 582.382812 1116.863281 582.867188 L 1122.472656 596.695312 L 1118.023438 596.695312 L 1112.511719 582.722656 L 1113.671875 583.300781 C 1113.445312 583.367188 1113.171875 583.414062 1112.851562 583.445312 C 1112.527344 583.476562 1112.089844 583.496094 1111.542969 583.496094 L 1101.628906 583.496094 L 1101.628906 596.695312 Z M 1097.472656 596.695312 "/>
<path fill-rule="nonzero" fill="rgb(0.392151%, 0.392151%, 0.392151%)" fill-opacity="1" d="M 1133.0625 563.425781 L 1137.222656 563.425781 L 1137.222656 596.695312 L 1133.0625 596.695312 Z M 1133.0625 563.425781 "/>
<path fill-rule="nonzero" fill="rgb(0.392151%, 0.392151%, 0.392151%)" fill-opacity="1" d="M 1168.992188 583.976562 L 1181.417969 583.976562 L 1175.328125 567.679688 L 1175.085938 567.679688 Z M 1160.09375 596.695312 L 1172.667969 563.425781 L 1177.886719 563.425781 L 1190.414062 596.695312 L 1186.109375 596.695312 L 1182.675781 587.605469 L 1167.734375 587.605469 L 1164.300781 596.695312 Z M 1160.09375 596.695312 "/>
<path fill-rule="nonzero" fill="rgb(0.392151%, 0.392151%, 0.392151%)" fill-opacity="1" d="M 1211.644531 597.082031 C 1209.355469 597.082031 1207.445312 596.945312 1205.914062 596.671875 C 1204.378906 596.398438 1203.148438 595.9375 1202.210938 595.292969 C 1201.277344 594.648438 1200.570312 593.753906 1200.085938 592.609375 C 1199.601562 591.464844 1199.28125 590.039062 1199.117188 588.328125 C 1198.957031 586.621094 1198.875 584.558594 1198.875 582.140625 L 1198.875 563.425781 L 1203.035156 563.425781 L 1203.035156 583.785156 C 1203.035156 585.816406 1203.117188 587.460938 1203.277344 588.71875 C 1203.4375 589.976562 1203.785156 590.957031 1204.316406 591.667969 C 1204.847656 592.378906 1205.695312 592.859375 1206.855469 593.117188 C 1208.015625 593.375 1209.613281 593.503906 1211.644531 593.503906 C 1213.671875 593.503906 1215.261719 593.375 1216.40625 593.117188 C 1217.550781 592.859375 1218.386719 592.378906 1218.917969 591.667969 C 1219.453125 590.957031 1219.78125 589.976562 1219.910156 588.71875 C 1220.039062 587.460938 1220.105469 585.816406 1220.105469 583.785156 L 1220.105469 563.425781 L 1224.261719 563.425781 L 1224.261719 582.140625 C 1224.261719 584.558594 1224.191406 586.621094 1224.046875 588.328125 C 1223.902344 590.039062 1223.59375 591.464844 1223.125 592.609375 C 1222.660156 593.753906 1221.957031 594.648438 1221.023438 595.292969 C 1220.089844 595.9375 1218.855469 596.398438 1217.324219 596.671875 C 1215.792969 596.945312 1213.898438 597.082031 1211.644531 597.082031 "/>
<path fill-rule="nonzero" fill="rgb(0.392151%, 0.392151%, 0.392151%)" fill-opacity="1" d="M 1243.316406 596.695312 L 1243.316406 567.101562 L 1232.824219 567.101562 L 1232.824219 563.425781 L 1258.015625 563.425781 L 1258.015625 567.101562 L 1247.472656 567.101562 L 1247.472656 596.695312 Z M 1243.316406 596.695312 "/>
<path fill-rule="nonzero" fill="rgb(0.392151%, 0.392151%, 0.392151%)" fill-opacity="1" d="M 1279.4375 593.503906 C 1281.210938 593.503906 1282.679688 593.449219 1283.839844 593.335938 C 1285 593.222656 1285.917969 592.957031 1286.59375 592.535156 C 1287.273438 592.117188 1287.789062 591.433594 1288.144531 590.484375 C 1288.5 589.53125 1288.714844 588.21875 1288.796875 586.539062 C 1288.875 584.863281 1288.917969 582.703125 1288.917969 580.0625 C 1288.917969 577.417969 1288.875 575.257812 1288.796875 573.582031 C 1288.714844 571.90625 1288.5 570.59375 1288.144531 569.640625 C 1287.789062 568.691406 1287.273438 568.003906 1286.59375 567.585938 C 1285.917969 567.167969 1285 566.902344 1283.839844 566.785156 C 1282.679688 566.675781 1281.210938 566.617188 1279.4375 566.617188 C 1277.667969 566.617188 1276.207031 566.675781 1275.0625 566.785156 C 1273.917969 566.902344 1273 567.167969 1272.304688 567.585938 C 1271.613281 568.003906 1271.097656 568.691406 1270.757812 569.640625 C 1270.417969 570.59375 1270.203125 571.90625 1270.105469 573.582031 C 1270.007812 575.257812 1269.960938 577.417969 1269.960938 580.0625 C 1269.960938 582.703125 1270.007812 584.863281 1270.105469 586.539062 C 1270.203125 588.21875 1270.417969 589.53125 1270.757812 590.484375 C 1271.097656 591.433594 1271.613281 592.117188 1272.304688 592.535156 C 1273 592.957031 1273.917969 593.222656 1275.0625 593.335938 C 1276.207031 593.449219 1277.667969 593.503906 1279.4375 593.503906 M 1279.4375 597.082031 C 1276.859375 597.082031 1274.722656 596.945312 1273.03125 596.671875 C 1271.339844 596.398438 1270 595.90625 1269.015625 595.195312 C 1268.035156 594.488281 1267.316406 593.496094 1266.867188 592.222656 C 1266.414062 590.949219 1266.125 589.320312 1265.996094 587.339844 C 1265.867188 585.355469 1265.800781 582.929688 1265.800781 580.0625 C 1265.800781 577.191406 1265.867188 574.765625 1265.996094 572.78125 C 1266.125 570.800781 1266.414062 569.175781 1266.867188 567.898438 C 1267.316406 566.625 1268.035156 565.636719 1269.015625 564.925781 C 1270 564.21875 1271.339844 563.726562 1273.03125 563.449219 C 1274.722656 563.175781 1276.859375 563.039062 1279.4375 563.039062 C 1282.015625 563.039062 1284.152344 563.175781 1285.847656 563.449219 C 1287.539062 563.726562 1288.875 564.21875 1289.859375 564.925781 C 1290.84375 565.636719 1291.558594 566.625 1292.011719 567.898438 C 1292.460938 569.175781 1292.753906 570.800781 1292.882812 572.78125 C 1293.011719 574.765625 1293.078125 577.191406 1293.078125 580.0625 C 1293.078125 582.929688 1293.011719 585.355469 1292.882812 587.339844 C 1292.753906 589.320312 1292.460938 590.949219 1292.011719 592.222656 C 1291.558594 593.496094 1290.84375 594.488281 1289.859375 595.195312 C 1288.875 595.90625 1287.539062 596.398438 1285.847656 596.671875 C 1284.152344 596.945312 1282.015625 597.082031 1279.4375 597.082031 "/>
<path fill-rule="nonzero" fill="rgb(0.392151%, 0.392151%, 0.392151%)" fill-opacity="1" d="M 1304.292969 596.695312 L 1304.292969 563.425781 L 1309.902344 563.425781 L 1321.269531 589.925781 L 1321.507812 589.925781 L 1332.824219 563.425781 L 1338.433594 563.425781 L 1338.433594 596.695312 L 1334.371094 596.695312 L 1334.371094 570.097656 L 1334.179688 570.097656 L 1322.816406 596.695312 L 1319.769531 596.695312 L 1308.402344 570.097656 L 1308.210938 570.097656 L 1308.210938 596.695312 Z M 1304.292969 596.695312 "/>
<path fill-rule="nonzero" fill="rgb(0.392151%, 0.392151%, 0.392151%)" fill-opacity="1" d="M 1356.179688 583.976562 L 1368.609375 583.976562 L 1362.515625 567.679688 L 1362.273438 567.679688 Z M 1347.285156 596.695312 L 1359.855469 563.425781 L 1365.078125 563.425781 L 1377.605469 596.695312 L 1373.300781 596.695312 L 1369.867188 587.605469 L 1354.921875 587.605469 L 1351.492188 596.695312 Z M 1347.285156 596.695312 "/>
<path fill-rule="nonzero" fill="rgb(0.392151%, 0.392151%, 0.392151%)" fill-opacity="1" d="M 1388.773438 596.695312 L 1388.773438 567.101562 L 1378.28125 567.101562 L 1378.28125 563.425781 L 1403.472656 563.425781 L 1403.472656 567.101562 L 1392.933594 567.101562 L 1392.933594 596.695312 Z M 1388.773438 596.695312 "/>
<path fill-rule="nonzero" fill="rgb(0.392151%, 0.392151%, 0.392151%)" fill-opacity="1" d="M 1412.421875 563.425781 L 1416.578125 563.425781 L 1416.578125 596.695312 L 1412.421875 596.695312 Z M 1412.421875 563.425781 "/>
<path fill-rule="nonzero" fill="rgb(0.392151%, 0.392151%, 0.392151%)" fill-opacity="1" d="M 1441.144531 597.082031 C 1438.824219 597.082031 1436.871094 596.945312 1435.292969 596.671875 C 1433.710938 596.398438 1432.421875 595.914062 1431.425781 595.222656 C 1430.425781 594.527344 1429.660156 593.546875 1429.128906 592.269531 C 1428.59375 590.996094 1428.234375 589.363281 1428.039062 587.363281 C 1427.84375 585.363281 1427.75 582.929688 1427.75 580.0625 C 1427.75 577.191406 1427.84375 574.765625 1428.039062 572.78125 C 1428.234375 570.800781 1428.59375 569.175781 1429.128906 567.898438 C 1429.660156 566.625 1430.425781 565.636719 1431.425781 564.925781 C 1432.421875 564.21875 1433.710938 563.726562 1435.292969 563.449219 C 1436.871094 563.175781 1438.824219 563.039062 1441.144531 563.039062 C 1442.046875 563.039062 1442.972656 563.070312 1443.925781 563.136719 C 1444.875 563.199219 1445.789062 563.28125 1446.65625 563.378906 C 1447.527344 563.476562 1448.285156 563.605469 1448.929688 563.765625 L 1448.929688 567.101562 C 1448.1875 567.003906 1447.421875 566.914062 1446.632812 566.835938 C 1445.84375 566.757812 1445.0625 566.699219 1444.289062 566.664062 C 1443.511719 566.636719 1442.820312 566.617188 1442.207031 566.617188 C 1440.335938 566.617188 1438.773438 566.699219 1437.515625 566.859375 C 1436.261719 567.019531 1435.261719 567.335938 1434.519531 567.804688 C 1433.777344 568.269531 1433.222656 568.996094 1432.851562 569.980469 C 1432.480469 570.964844 1432.230469 572.269531 1432.101562 573.894531 C 1431.972656 575.523438 1431.910156 577.578125 1431.910156 580.0625 C 1431.910156 582.542969 1431.972656 584.601562 1432.101562 586.226562 C 1432.230469 587.855469 1432.480469 589.160156 1432.851562 590.144531 C 1433.222656 591.128906 1433.777344 591.851562 1434.519531 592.320312 C 1435.261719 592.789062 1436.261719 593.101562 1437.515625 593.261719 C 1438.773438 593.425781 1440.335938 593.503906 1442.207031 593.503906 C 1443.304688 593.503906 1444.496094 593.457031 1445.789062 593.359375 C 1447.078125 593.261719 1448.1875 593.148438 1449.125 593.019531 L 1449.125 596.453125 C 1448.445312 596.585938 1447.648438 596.6875 1446.730469 596.769531 C 1445.808594 596.847656 1444.867188 596.921875 1443.902344 596.984375 C 1442.933594 597.050781 1442.015625 597.082031 1441.144531 597.082031 "/>
<path fill-rule="nonzero" fill="rgb(0.392151%, 0.392151%, 0.392151%)" fill-opacity="1" d="M 1459.375 563.425781 L 1463.53125 563.425781 L 1463.53125 596.695312 L 1459.375 596.695312 Z M 1459.375 563.425781 "/>
<path fill-rule="nonzero" fill="rgb(0.392151%, 0.392151%, 0.392151%)" fill-opacity="1" d="M 789.679688 654.726562 L 789.679688 621.457031 L 811.296875 621.457031 L 811.296875 625.035156 L 793.839844 625.035156 L 793.839844 636.109375 L 809.023438 636.109375 L 809.023438 639.734375 L 793.839844 639.734375 L 793.839844 651.148438 L 811.296875 651.148438 L 811.296875 654.726562 Z M 789.679688 654.726562 "/>
<path fill-rule="nonzero" fill="rgb(0.392151%, 0.392151%, 0.392151%)" fill-opacity="1" d="M 846.597656 655.113281 C 845.402344 655.113281 844.097656 655.082031 842.679688 655.015625 C 841.261719 654.953125 839.882812 654.871094 838.542969 654.773438 C 837.207031 654.675781 835.988281 654.5625 834.894531 654.433594 L 834.894531 650.90625 C 836.054688 651.003906 837.269531 651.097656 838.542969 651.195312 C 839.820312 651.292969 841.058594 651.375 842.269531 651.4375 C 843.476562 651.503906 844.5 651.535156 845.339844 651.535156 C 847.046875 651.535156 848.417969 651.460938 849.449219 651.316406 C 850.480469 651.171875 851.351562 650.890625 852.0625 650.46875 C 852.542969 650.179688 852.898438 649.792969 853.125 649.308594 C 853.351562 648.828125 853.488281 648.261719 853.535156 647.617188 C 853.585938 646.972656 853.609375 646.28125 853.609375 645.539062 C 853.609375 644.441406 853.574219 643.554688 853.511719 642.878906 C 853.445312 642.203125 853.277344 641.675781 853.003906 641.304688 C 852.730469 640.9375 852.285156 640.664062 851.675781 640.484375 C 851.0625 640.308594 850.238281 640.171875 849.207031 640.074219 L 840.9375 639.15625 C 839.390625 638.960938 838.148438 638.632812 837.214844 638.164062 C 836.28125 637.695312 835.578125 637.097656 835.113281 636.375 C 834.644531 635.648438 834.328125 634.777344 834.167969 633.761719 C 834.007812 632.746094 833.925781 631.609375 833.925781 630.351562 C 833.925781 628.324219 834.191406 626.695312 834.726562 625.46875 C 835.257812 624.246094 836.039062 623.308594 837.070312 622.664062 C 838.101562 622.019531 839.351562 621.59375 840.816406 621.382812 C 842.285156 621.175781 843.96875 621.066406 845.871094 621.066406 C 847.097656 621.066406 848.355469 621.101562 849.644531 621.167969 C 850.933594 621.230469 852.148438 621.320312 853.292969 621.429688 C 854.4375 621.546875 855.378906 621.679688 856.121094 621.84375 L 856.121094 625.277344 C 855.285156 625.148438 854.316406 625.035156 853.222656 624.9375 C 852.125 624.839844 851.003906 624.769531 849.859375 624.71875 C 848.714844 624.671875 847.628906 624.648438 846.597656 624.648438 C 844.824219 624.648438 843.390625 624.726562 842.292969 624.886719 C 841.195312 625.050781 840.324219 625.339844 839.683594 625.757812 C 838.972656 626.179688 838.527344 626.765625 838.351562 627.523438 C 838.175781 628.28125 838.085938 629.191406 838.085938 630.257812 C 838.085938 631.511719 838.175781 632.488281 838.351562 633.183594 C 838.527344 633.875 838.914062 634.359375 839.511719 634.632812 C 840.109375 634.90625 841.003906 635.109375 842.195312 635.238281 L 850.273438 636.15625 C 851.433594 636.253906 852.457031 636.40625 853.34375 636.617188 C 854.230469 636.828125 854.992188 637.171875 855.640625 637.65625 C 856.285156 638.136719 856.769531 638.832031 857.089844 639.734375 C 857.285156 640.1875 857.429688 640.6875 857.527344 641.234375 C 857.621094 641.78125 857.695312 642.386719 857.742188 643.046875 C 857.792969 643.707031 857.816406 644.441406 857.816406 645.246094 C 857.816406 647.085938 857.640625 648.609375 857.285156 649.816406 C 856.929688 651.027344 856.429688 651.984375 855.785156 652.695312 C 855.140625 653.40625 854.351562 653.933594 853.414062 654.289062 C 852.480469 654.644531 851.441406 654.871094 850.296875 654.96875 C 849.152344 655.0625 847.917969 655.113281 846.597656 655.113281 "/>
<path fill-rule="nonzero" fill="rgb(0.392151%, 0.392151%, 0.392151%)" fill-opacity="1" d="M 881.027344 651.535156 C 882.800781 651.535156 884.265625 651.476562 885.425781 651.363281 C 886.589844 651.253906 887.507812 650.984375 888.183594 650.566406 C 888.859375 650.148438 889.375 649.464844 889.730469 648.511719 C 890.085938 647.5625 890.304688 646.246094 890.382812 644.570312 C 890.464844 642.894531 890.503906 640.734375 890.503906 638.089844 C 890.503906 635.445312 890.464844 633.289062 890.382812 631.609375 C 890.304688 629.933594 890.085938 628.621094 889.730469 627.671875 C 889.375 626.71875 888.859375 626.035156 888.183594 625.613281 C 887.507812 625.195312 886.589844 624.929688 885.425781 624.816406 C 884.265625 624.703125 882.800781 624.648438 881.027344 624.648438 C 879.253906 624.648438 877.792969 624.703125 876.652344 624.816406 C 875.507812 624.929688 874.585938 625.195312 873.894531 625.613281 C 873.199219 626.035156 872.683594 626.71875 872.347656 627.671875 C 872.007812 628.621094 871.789062 629.933594 871.695312 631.609375 C 871.597656 633.289062 871.550781 635.445312 871.550781 638.089844 C 871.550781 640.734375 871.597656 642.894531 871.695312 644.570312 C 871.789062 646.246094 872.007812 647.5625 872.347656 648.511719 C 872.683594 649.464844 873.199219 650.148438 873.894531 650.566406 C 874.585938 650.984375 875.507812 651.253906 876.652344 651.363281 C 877.792969 651.476562 879.253906 651.535156 881.027344 651.535156 M 881.027344 655.113281 C 878.445312 655.113281 876.3125 654.972656 874.621094 654.703125 C 872.925781 654.429688 871.589844 653.933594 870.605469 653.226562 C 869.621094 652.515625 868.90625 651.527344 868.453125 650.253906 C 868 648.980469 867.710938 647.351562 867.582031 645.367188 C 867.453125 643.386719 867.390625 640.960938 867.390625 638.089844 C 867.390625 635.222656 867.453125 632.796875 867.582031 630.8125 C 867.710938 628.832031 868 627.203125 868.453125 625.929688 C 868.90625 624.65625 869.621094 623.664062 870.605469 622.957031 C 871.589844 622.246094 872.925781 621.753906 874.621094 621.480469 C 876.3125 621.207031 878.445312 621.066406 881.027344 621.066406 C 883.605469 621.066406 885.742188 621.207031 887.433594 621.480469 C 889.125 621.753906 890.464844 622.246094 891.449219 622.957031 C 892.429688 623.664062 893.148438 624.65625 893.601562 625.929688 C 894.050781 627.203125 894.339844 628.832031 894.46875 630.8125 C 894.597656 632.796875 894.664062 635.222656 894.664062 638.089844 C 894.664062 640.960938 894.597656 643.386719 894.46875 645.367188 C 894.339844 647.351562 894.050781 648.980469 893.601562 650.253906 C 893.148438 651.527344 892.429688 652.515625 891.449219 653.226562 C 890.464844 653.933594 889.125 654.429688 887.433594 654.703125 C 885.742188 654.972656 883.605469 655.113281 881.027344 655.113281 "/>
<path fill-rule="nonzero" fill="rgb(0.392151%, 0.392151%, 0.392151%)" fill-opacity="1" d="M 905.882812 654.726562 L 905.882812 621.457031 L 910.042969 621.457031 L 910.042969 651.050781 L 925.5625 651.050781 L 925.5625 654.726562 Z M 905.882812 654.726562 "/>
<path fill-rule="nonzero" fill="rgb(0.392151%, 0.392151%, 0.392151%)" fill-opacity="1" d="M 946.890625 655.113281 C 944.597656 655.113281 942.6875 654.972656 941.160156 654.703125 C 939.628906 654.425781 938.394531 653.96875 937.460938 653.324219 C 936.523438 652.679688 935.816406 651.785156 935.332031 650.640625 C 934.847656 649.496094 934.523438 648.070312 934.363281 646.359375 C 934.203125 644.652344 934.121094 642.589844 934.121094 640.171875 L 934.121094 621.457031 L 938.28125 621.457031 L 938.28125 641.8125 C 938.28125 643.84375 938.359375 645.488281 938.523438 646.746094 C 938.683594 648.003906 939.03125 648.988281 939.5625 649.695312 C 940.09375 650.40625 940.941406 650.890625 942.101562 651.148438 C 943.261719 651.40625 944.859375 651.535156 946.890625 651.535156 C 948.921875 651.535156 950.507812 651.40625 951.652344 651.148438 C 952.796875 650.890625 953.636719 650.40625 954.167969 649.695312 C 954.699219 648.988281 955.027344 648.003906 955.15625 646.746094 C 955.285156 645.488281 955.351562 643.84375 955.351562 641.8125 L 955.351562 621.457031 L 959.511719 621.457031 L 959.511719 640.171875 C 959.511719 642.589844 959.4375 644.652344 959.292969 646.359375 C 959.148438 648.070312 958.839844 649.496094 958.375 650.640625 C 957.90625 651.785156 957.207031 652.679688 956.269531 653.324219 C 955.335938 653.96875 954.101562 654.425781 952.570312 654.703125 C 951.039062 654.972656 949.144531 655.113281 946.890625 655.113281 "/>
<path fill-rule="nonzero" fill="rgb(0.392151%, 0.392151%, 0.392151%)" fill-opacity="1" d="M 969.179688 654.726562 L 969.179688 651.292969 L 987.945312 625.035156 L 969.714844 625.035156 L 969.714844 621.457031 L 993.214844 621.457031 L 993.214844 624.792969 L 974.40625 651.148438 L 993.503906 651.148438 L 993.503906 654.726562 Z M 969.179688 654.726562 "/>
<path fill-rule="nonzero" fill="rgb(0.392151%, 0.392151%, 0.392151%)" fill-opacity="1" d="M 1003.417969 621.457031 L 1007.574219 621.457031 L 1007.574219 654.726562 L 1003.417969 654.726562 Z M 1003.417969 621.457031 "/>
<path fill-rule="nonzero" fill="rgb(0.392151%, 0.392151%, 0.392151%)" fill-opacity="1" d="M 1032.382812 651.535156 C 1034.15625 651.535156 1035.625 651.476562 1036.785156 651.363281 C 1037.945312 651.253906 1038.863281 650.984375 1039.539062 650.566406 C 1040.21875 650.148438 1040.734375 649.464844 1041.089844 648.511719 C 1041.445312 647.5625 1041.660156 646.246094 1041.742188 644.570312 C 1041.820312 642.894531 1041.863281 640.734375 1041.863281 638.089844 C 1041.863281 635.445312 1041.820312 633.289062 1041.742188 631.609375 C 1041.660156 629.933594 1041.445312 628.621094 1041.089844 627.671875 C 1040.734375 626.71875 1040.21875 626.035156 1039.539062 625.613281 C 1038.863281 625.195312 1037.945312 624.929688 1036.785156 624.816406 C 1035.625 624.703125 1034.15625 624.648438 1032.382812 624.648438 C 1030.613281 624.648438 1029.152344 624.703125 1028.007812 624.816406 C 1026.863281 624.929688 1025.945312 625.195312 1025.25 625.613281 C 1024.558594 626.035156 1024.042969 626.71875 1023.703125 627.671875 C 1023.363281 628.621094 1023.148438 629.933594 1023.050781 631.609375 C 1022.953125 633.289062 1022.90625 635.445312 1022.90625 638.089844 C 1022.90625 640.734375 1022.953125 642.894531 1023.050781 644.570312 C 1023.148438 646.246094 1023.363281 647.5625 1023.703125 648.511719 C 1024.042969 649.464844 1024.558594 650.148438 1025.25 650.566406 C 1025.945312 650.984375 1026.863281 651.253906 1028.007812 651.363281 C 1029.152344 651.476562 1030.613281 651.535156 1032.382812 651.535156 M 1032.382812 655.113281 C 1029.804688 655.113281 1027.667969 654.972656 1025.976562 654.703125 C 1024.285156 654.429688 1022.945312 653.933594 1021.960938 653.226562 C 1020.980469 652.515625 1020.261719 651.527344 1019.8125 650.253906 C 1019.359375 648.980469 1019.070312 647.351562 1018.941406 645.367188 C 1018.8125 643.386719 1018.746094 640.960938 1018.746094 638.089844 C 1018.746094 635.222656 1018.8125 632.796875 1018.941406 630.8125 C 1019.070312 628.832031 1019.359375 627.203125 1019.8125 625.929688 C 1020.261719 624.65625 1020.980469 623.664062 1021.960938 622.957031 C 1022.945312 622.246094 1024.285156 621.753906 1025.976562 621.480469 C 1027.667969 621.207031 1029.804688 621.066406 1032.382812 621.066406 C 1034.960938 621.066406 1037.097656 621.207031 1038.792969 621.480469 C 1040.484375 621.753906 1041.820312 622.246094 1042.804688 622.957031 C 1043.789062 623.664062 1044.503906 624.65625 1044.957031 625.929688 C 1045.40625 627.203125 1045.699219 628.832031 1045.828125 630.8125 C 1045.957031 632.796875 1046.023438 635.222656 1046.023438 638.089844 C 1046.023438 640.960938 1045.957031 643.386719 1045.828125 645.367188 C 1045.699219 647.351562 1045.40625 648.980469 1044.957031 650.253906 C 1044.503906 651.527344 1043.789062 652.515625 1042.804688 653.226562 C 1041.820312 653.933594 1040.484375 654.429688 1038.792969 654.703125 C 1037.097656 654.972656 1034.960938 655.113281 1032.382812 655.113281 "/>
<path fill-rule="nonzero" fill="rgb(0.392151%, 0.392151%, 0.392151%)" fill-opacity="1" d="M 1057.238281 654.726562 L 1057.238281 621.457031 L 1061.496094 621.457031 L 1078.757812 646.941406 L 1078.953125 646.941406 L 1078.953125 621.457031 L 1082.964844 621.457031 L 1082.964844 654.726562 L 1078.953125 654.726562 L 1061.445312 628.757812 L 1061.253906 628.757812 L 1061.253906 654.726562 Z M 1057.238281 654.726562 "/>
<path fill-rule="nonzero" fill="rgb(0.392151%, 0.392151%, 0.392151%)" fill-opacity="1" d="M 1095.246094 621.457031 L 1099.40625 621.457031 L 1099.40625 654.726562 L 1095.246094 654.726562 Z M 1095.246094 621.457031 "/>
<path fill-rule="nonzero" fill="rgb(0.392151%, 0.392151%, 0.392151%)" fill-opacity="1" d="M 1132.867188 654.726562 L 1132.867188 625.128906 L 1122.375 625.128906 L 1122.375 621.457031 L 1147.570312 621.457031 L 1147.570312 625.128906 L 1137.027344 625.128906 L 1137.027344 654.726562 Z M 1132.867188 654.726562 "/>
<path fill-rule="nonzero" fill="rgb(0.392151%, 0.392151%, 0.392151%)" fill-opacity="1" d="M 1156.515625 654.726562 L 1156.515625 621.457031 L 1178.128906 621.457031 L 1178.128906 625.035156 L 1160.671875 625.035156 L 1160.671875 636.109375 L 1175.859375 636.109375 L 1175.859375 639.734375 L 1160.671875 639.734375 L 1160.671875 651.148438 L 1178.128906 651.148438 L 1178.128906 654.726562 Z M 1156.515625 654.726562 "/>
<path fill-rule="nonzero" fill="rgb(0.392151%, 0.392151%, 0.392151%)" fill-opacity="1" d="M 1200.570312 655.113281 C 1198.246094 655.113281 1196.296875 654.972656 1194.714844 654.703125 C 1193.136719 654.425781 1191.847656 653.945312 1190.847656 653.25 C 1189.847656 652.558594 1189.082031 651.574219 1188.550781 650.300781 C 1188.019531 649.027344 1187.65625 647.390625 1187.464844 645.390625 C 1187.269531 643.394531 1187.171875 640.960938 1187.171875 638.089844 C 1187.171875 635.222656 1187.269531 632.796875 1187.464844 630.8125 C 1187.65625 628.832031 1188.019531 627.203125 1188.550781 625.929688 C 1189.082031 624.65625 1189.847656 623.664062 1190.847656 622.957031 C 1191.847656 622.246094 1193.136719 621.753906 1194.714844 621.480469 C 1196.296875 621.207031 1198.246094 621.066406 1200.570312 621.066406 C 1201.46875 621.066406 1202.398438 621.101562 1203.347656 621.167969 C 1204.296875 621.230469 1205.210938 621.308594 1206.082031 621.40625 C 1206.953125 621.503906 1207.707031 621.632812 1208.351562 621.792969 L 1208.351562 625.132812 C 1207.613281 625.035156 1206.847656 624.945312 1206.054688 624.867188 C 1205.265625 624.785156 1204.484375 624.726562 1203.710938 624.695312 C 1202.9375 624.664062 1202.246094 624.648438 1201.632812 624.648438 C 1199.761719 624.648438 1198.199219 624.726562 1196.941406 624.886719 C 1195.683594 625.050781 1194.683594 625.367188 1193.945312 625.832031 C 1193.203125 626.300781 1192.644531 627.023438 1192.277344 628.007812 C 1191.90625 628.992188 1191.65625 630.296875 1191.527344 631.925781 C 1191.394531 633.554688 1191.332031 635.609375 1191.332031 638.089844 C 1191.332031 640.574219 1191.394531 642.628906 1191.527344 644.257812 C 1191.65625 645.882812 1191.90625 647.191406 1192.277344 648.171875 C 1192.644531 649.15625 1193.203125 649.882812 1193.945312 650.347656 C 1194.683594 650.816406 1195.683594 651.132812 1196.941406 651.292969 C 1198.199219 651.453125 1199.761719 651.535156 1201.632812 651.535156 C 1202.726562 651.535156 1203.921875 651.484375 1205.210938 651.386719 C 1206.5 651.292969 1207.613281 651.179688 1208.546875 651.050781 L 1208.546875 654.484375 C 1207.871094 654.613281 1207.074219 654.71875 1206.152344 654.796875 C 1205.234375 654.878906 1204.292969 654.953125 1203.324219 655.015625 C 1202.355469 655.082031 1201.4375 655.113281 1200.570312 655.113281 "/>
<path fill-rule="nonzero" fill="rgb(0.392151%, 0.392151%, 0.392151%)" fill-opacity="1" d="M 1218.800781 654.726562 L 1218.800781 621.457031 L 1223.054688 621.457031 L 1240.320312 646.941406 L 1240.511719 646.941406 L 1240.511719 621.457031 L 1244.527344 621.457031 L 1244.527344 654.726562 L 1240.511719 654.726562 L 1223.007812 628.757812 L 1222.8125 628.757812 L 1222.8125 654.726562 Z M 1218.800781 654.726562 "/>
<path fill-rule="nonzero" fill="rgb(0.392151%, 0.392151%, 0.392151%)" fill-opacity="1" d="M 1269.28125 651.535156 C 1271.054688 651.535156 1272.523438 651.476562 1273.683594 651.363281 C 1274.84375 651.253906 1275.761719 650.984375 1276.441406 650.566406 C 1277.117188 650.148438 1277.632812 649.464844 1277.988281 648.511719 C 1278.34375 647.5625 1278.558594 646.246094 1278.640625 644.570312 C 1278.722656 642.894531 1278.761719 640.734375 1278.761719 638.089844 C 1278.761719 635.445312 1278.722656 633.289062 1278.640625 631.609375 C 1278.558594 629.933594 1278.34375 628.621094 1277.988281 627.671875 C 1277.632812 626.71875 1277.117188 626.035156 1276.441406 625.613281 C 1275.761719 625.195312 1274.84375 624.929688 1273.683594 624.816406 C 1272.523438 624.703125 1271.054688 624.648438 1269.28125 624.648438 C 1267.511719 624.648438 1266.050781 624.703125 1264.90625 624.816406 C 1263.761719 624.929688 1262.84375 625.195312 1262.152344 625.613281 C 1261.457031 626.035156 1260.941406 626.71875 1260.601562 627.671875 C 1260.265625 628.621094 1260.046875 629.933594 1259.949219 631.609375 C 1259.851562 633.289062 1259.804688 635.445312 1259.804688 638.089844 C 1259.804688 640.734375 1259.851562 642.894531 1259.949219 644.570312 C 1260.046875 646.246094 1260.265625 647.5625 1260.601562 648.511719 C 1260.941406 649.464844 1261.457031 650.148438 1262.152344 650.566406 C 1262.84375 650.984375 1263.761719 651.253906 1264.90625 651.363281 C 1266.050781 651.476562 1267.511719 651.535156 1269.28125 651.535156 M 1269.28125 655.113281 C 1266.703125 655.113281 1264.566406 654.972656 1262.875 654.703125 C 1261.183594 654.429688 1259.84375 653.933594 1258.863281 653.226562 C 1257.878906 652.515625 1257.164062 651.527344 1256.710938 650.253906 C 1256.257812 648.980469 1255.96875 647.351562 1255.839844 645.367188 C 1255.710938 643.386719 1255.644531 640.960938 1255.644531 638.089844 C 1255.644531 635.222656 1255.710938 632.796875 1255.839844 630.8125 C 1255.96875 628.832031 1256.257812 627.203125 1256.710938 625.929688 C 1257.164062 624.65625 1257.878906 623.664062 1258.863281 622.957031 C 1259.84375 622.246094 1261.183594 621.753906 1262.875 621.480469 C 1264.566406 621.207031 1266.703125 621.066406 1269.28125 621.066406 C 1271.863281 621.066406 1274 621.207031 1275.691406 621.480469 C 1277.382812 621.753906 1278.722656 622.246094 1279.707031 622.957031 C 1280.6875 623.664062 1281.402344 624.65625 1281.855469 625.929688 C 1282.308594 627.203125 1282.597656 628.832031 1282.726562 630.8125 C 1282.855469 632.796875 1282.921875 635.222656 1282.921875 638.089844 C 1282.921875 640.960938 1282.855469 643.386719 1282.726562 645.367188 C 1282.597656 647.351562 1282.308594 648.980469 1281.855469 650.253906 C 1281.402344 651.527344 1280.6875 652.515625 1279.707031 653.226562 C 1278.722656 653.933594 1277.382812 654.429688 1275.691406 654.703125 C 1274 654.972656 1271.863281 655.113281 1269.28125 655.113281 "/>
<path fill-rule="nonzero" fill="rgb(0.392151%, 0.392151%, 0.392151%)" fill-opacity="1" d="M 1294.140625 654.726562 L 1294.140625 621.457031 L 1298.296875 621.457031 L 1298.296875 651.050781 L 1313.820312 651.050781 L 1313.820312 654.726562 Z M 1294.140625 654.726562 "/>
<path fill-rule="nonzero" fill="rgb(0.392151%, 0.392151%, 0.392151%)" fill-opacity="1" d="M 1335.289062 651.535156 C 1337.0625 651.535156 1338.53125 651.476562 1339.691406 651.363281 C 1340.851562 651.253906 1341.769531 650.984375 1342.449219 650.566406 C 1343.125 650.148438 1343.640625 649.464844 1343.996094 648.511719 C 1344.351562 647.5625 1344.566406 646.246094 1344.648438 644.570312 C 1344.730469 642.894531 1344.769531 640.734375 1344.769531 638.089844 C 1344.769531 635.445312 1344.730469 633.289062 1344.648438 631.609375 C 1344.566406 629.933594 1344.351562 628.621094 1343.996094 627.671875 C 1343.640625 626.71875 1343.125 626.035156 1342.449219 625.613281 C 1341.769531 625.195312 1340.851562 624.929688 1339.691406 624.816406 C 1338.53125 624.703125 1337.0625 624.648438 1335.289062 624.648438 C 1333.519531 624.648438 1332.058594 624.703125 1330.914062 624.816406 C 1329.769531 624.929688 1328.851562 625.195312 1328.160156 625.613281 C 1327.464844 626.035156 1326.949219 626.71875 1326.609375 627.671875 C 1326.273438 628.621094 1326.054688 629.933594 1325.957031 631.609375 C 1325.859375 633.289062 1325.8125 635.445312 1325.8125 638.089844 C 1325.8125 640.734375 1325.859375 642.894531 1325.957031 644.570312 C 1326.054688 646.246094 1326.273438 647.5625 1326.609375 648.511719 C 1326.949219 649.464844 1327.464844 650.148438 1328.160156 650.566406 C 1328.851562 650.984375 1329.769531 651.253906 1330.914062 651.363281 C 1332.058594 651.476562 1333.519531 651.535156 1335.289062 651.535156 M 1335.289062 655.113281 C 1332.710938 655.113281 1330.574219 654.972656 1328.882812 654.703125 C 1327.191406 654.429688 1325.851562 653.933594 1324.871094 653.226562 C 1323.886719 652.515625 1323.171875 651.527344 1322.71875 650.253906 C 1322.265625 648.980469 1321.976562 647.351562 1321.847656 645.367188 C 1321.71875 643.386719 1321.652344 640.960938 1321.652344 638.089844 C 1321.652344 635.222656 1321.71875 632.796875 1321.847656 630.8125 C 1321.976562 628.832031 1322.265625 627.203125 1322.71875 625.929688 C 1323.171875 624.65625 1323.886719 623.664062 1324.871094 622.957031 C 1325.851562 622.246094 1327.191406 621.753906 1328.882812 621.480469 C 1330.574219 621.207031 1332.710938 621.066406 1335.289062 621.066406 C 1337.871094 621.066406 1340.007812 621.207031 1341.699219 621.480469 C 1343.390625 621.753906 1344.730469 622.246094 1345.714844 622.957031 C 1346.695312 623.664062 1347.410156 624.65625 1347.863281 625.929688 C 1348.316406 627.203125 1348.605469 628.832031 1348.734375 630.8125 C 1348.863281 632.796875 1348.929688 635.222656 1348.929688 638.089844 C 1348.929688 640.960938 1348.863281 643.386719 1348.734375 645.367188 C 1348.605469 647.351562 1348.316406 648.980469 1347.863281 650.253906 C 1347.410156 651.527344 1346.695312 652.515625 1345.714844 653.226562 C 1344.730469 653.933594 1343.390625 654.429688 1341.699219 654.703125 C 1340.007812 654.972656 1337.871094 655.113281 1335.289062 655.113281 "/>
<path fill-rule="nonzero" fill="rgb(0.392151%, 0.392151%, 0.392151%)" fill-opacity="1" d="M 1373.105469 655.113281 C 1370.753906 655.113281 1368.753906 654.972656 1367.109375 654.703125 C 1365.464844 654.425781 1364.121094 653.933594 1363.074219 653.226562 C 1362.023438 652.515625 1361.203125 651.527344 1360.605469 650.253906 C 1360.007812 648.980469 1359.589844 647.351562 1359.347656 645.367188 C 1359.105469 643.386719 1358.984375 640.960938 1358.984375 638.089844 C 1358.984375 635.222656 1359.105469 632.796875 1359.347656 630.8125 C 1359.589844 628.832031 1360.015625 627.203125 1360.628906 625.929688 C 1361.242188 624.65625 1362.082031 623.664062 1363.144531 622.957031 C 1364.207031 622.246094 1365.554688 621.753906 1367.183594 621.480469 C 1368.808594 621.207031 1370.785156 621.066406 1373.105469 621.066406 C 1374.203125 621.066406 1375.378906 621.117188 1376.636719 621.214844 C 1377.894531 621.308594 1379.128906 621.425781 1380.335938 621.550781 C 1381.542969 621.679688 1382.632812 621.84375 1383.597656 622.035156 L 1383.597656 625.421875 C 1382.566406 625.257812 1381.519531 625.125 1380.457031 625.007812 C 1379.390625 624.898438 1378.402344 624.808594 1377.480469 624.746094 C 1376.5625 624.679688 1375.78125 624.648438 1375.136719 624.648438 C 1373.136719 624.648438 1371.4375 624.695312 1370.035156 624.792969 C 1368.632812 624.886719 1367.480469 625.148438 1366.578125 625.566406 C 1365.675781 625.984375 1364.980469 626.671875 1364.5 627.621094 C 1364.015625 628.574219 1363.667969 629.886719 1363.460938 631.5625 C 1363.25 633.238281 1363.144531 635.414062 1363.144531 638.089844 C 1363.144531 640.445312 1363.210938 642.417969 1363.335938 644.015625 C 1363.464844 645.609375 1363.730469 646.910156 1364.136719 647.90625 C 1364.539062 648.90625 1365.101562 649.679688 1365.828125 650.226562 C 1366.554688 650.777344 1367.519531 651.140625 1368.730469 651.316406 C 1369.9375 651.496094 1371.429688 651.582031 1373.203125 651.582031 C 1373.878906 651.582031 1374.621094 651.566406 1375.425781 651.535156 C 1376.230469 651.503906 1377.023438 651.453125 1377.796875 651.386719 C 1378.570312 651.324219 1379.214844 651.261719 1379.730469 651.195312 L 1379.730469 640.363281 L 1372.1875 640.363281 L 1372.1875 636.832031 L 1383.746094 636.832031 L 1383.746094 654.144531 C 1382.679688 654.339844 1381.511719 654.507812 1380.238281 654.652344 C 1378.964844 654.796875 1377.707031 654.910156 1376.464844 654.992188 C 1375.226562 655.070312 1374.105469 655.113281 1373.105469 655.113281 "/>
<path fill-rule="nonzero" fill="rgb(0.392151%, 0.392151%, 0.392151%)" fill-opacity="1" d="M 1395.496094 621.457031 L 1399.652344 621.457031 L 1399.652344 654.726562 L 1395.496094 654.726562 Z M 1395.496094 621.457031 "/>
<path fill-rule="nonzero" fill="rgb(0.392151%, 0.392151%, 0.392151%)" fill-opacity="1" d="M 1424.21875 655.113281 C 1421.898438 655.113281 1419.949219 654.972656 1418.367188 654.703125 C 1416.789062 654.425781 1415.5 653.945312 1414.5 653.25 C 1413.5 652.558594 1412.734375 651.574219 1412.203125 650.300781 C 1411.671875 649.027344 1411.308594 647.390625 1411.113281 645.390625 C 1410.921875 643.394531 1410.824219 640.960938 1410.824219 638.089844 C 1410.824219 635.222656 1410.921875 632.796875 1411.113281 630.8125 C 1411.308594 628.832031 1411.671875 627.203125 1412.203125 625.929688 C 1412.734375 624.65625 1413.5 623.664062 1414.5 622.957031 C 1415.5 622.246094 1416.789062 621.753906 1418.367188 621.480469 C 1419.949219 621.207031 1421.898438 621.066406 1424.21875 621.066406 C 1425.121094 621.066406 1426.046875 621.101562 1427 621.167969 C 1427.949219 621.230469 1428.863281 621.308594 1429.734375 621.40625 C 1430.601562 621.503906 1431.359375 621.632812 1432.003906 621.792969 L 1432.003906 625.132812 C 1431.261719 625.035156 1430.496094 624.945312 1429.707031 624.867188 C 1428.917969 624.785156 1428.136719 624.726562 1427.363281 624.695312 C 1426.589844 624.664062 1425.894531 624.648438 1425.28125 624.648438 C 1423.414062 624.648438 1421.851562 624.726562 1420.59375 624.886719 C 1419.335938 625.050781 1418.335938 625.367188 1417.59375 625.832031 C 1416.851562 626.300781 1416.296875 627.023438 1415.925781 628.007812 C 1415.554688 628.992188 1415.304688 630.296875 1415.175781 631.925781 C 1415.046875 633.554688 1414.984375 635.609375 1414.984375 638.089844 C 1414.984375 640.574219 1415.046875 642.628906 1415.175781 644.257812 C 1415.304688 645.882812 1415.554688 647.191406 1415.925781 648.171875 C 1416.296875 649.15625 1416.851562 649.882812 1417.59375 650.347656 C 1418.335938 650.816406 1419.335938 651.132812 1420.59375 651.292969 C 1421.851562 651.453125 1423.414062 651.535156 1425.28125 651.535156 C 1426.378906 651.535156 1427.574219 651.484375 1428.863281 651.386719 C 1430.152344 651.292969 1431.261719 651.179688 1432.199219 651.050781 L 1432.199219 654.484375 C 1431.523438 654.613281 1430.722656 654.71875 1429.804688 654.796875 C 1428.886719 654.878906 1427.945312 654.953125 1426.976562 655.015625 C 1426.007812 655.082031 1425.089844 655.113281 1424.21875 655.113281 "/>
<path fill-rule="nonzero" fill="rgb(0.392151%, 0.392151%, 0.392151%)" fill-opacity="1" d="M 1442.449219 654.726562 L 1442.449219 621.457031 L 1446.609375 621.457031 L 1446.609375 636.109375 L 1464.015625 636.109375 L 1464.015625 621.457031 L 1468.175781 621.457031 L 1468.175781 654.726562 L 1464.015625 654.726562 L 1464.015625 639.785156 L 1446.609375 639.785156 L 1446.609375 654.726562 Z M 1442.449219 654.726562 "/>
<path fill-rule="nonzero" fill="rgb(0.392151%, 0.392151%, 0.392151%)" fill-opacity="1" d="M 1480.460938 654.726562 L 1480.460938 621.457031 L 1502.074219 621.457031 L 1502.074219 625.035156 L 1484.617188 625.035156 L 1484.617188 636.109375 L 1499.800781 636.109375 L 1499.800781 639.734375 L 1484.617188 639.734375 L 1484.617188 651.148438 L 1502.074219 651.148438 L 1502.074219 654.726562 Z M 1480.460938 654.726562 "/>
</svg>
